{"title":"At Close Range (1986) Sean Penn + Christopher Walken (opt.subs)","uid":4771142,"size":730342976,"categoryP":"video","categoryS":"movies","magnet":"?xt=urn:btih:92bb91f5fc0d4691eb2cbf8601e506b1a4a4d8fe&amp;dn=At+Close+Range+%281986%29+Sean+Penn+%2B+Christopher+Walken+%28opt.subs%29&amp;tr=udp%3A%2F%2Ftracker.openbittorrent.com%3A80&amp;tr=udp%3A%2F%2Fopen.demonii.com%3A1337&amp;tr=udp%3A%2F%2Ftracker.coppersurfer.tk%3A6969&amp;tr=udp%3A%2F%2Fexodus.desync.com%3A6969","seeders":9,"leechers":2,"uploader":"Kuthumi","files":-1,"time":1237045480,"description":" &lt;a href=&quot;http://www.imdb.com/title/tt0090670/&quot; rel=&quot;nofollow&quot; target=&quot;_NEW&quot;&gt;http://www.imdb.com/title/tt0090670/&lt;/a&gt;\n\nOptional subtitles in separate idx/sub files with green color: French, Spanish (Work in Windows Media Player etc.)\n\nWith Chris Penn and Mary Stuart Masterson\n\nA very young Sean Penn (then 26) stars with his younger brother Chris, who died in 2006, in this classic where the two brothers try to cope with their criminal father (Christopher Walken).\nI just discovered that this film has vanished from all the torrent sites, so I made a new rip for you. \n\nWidescreen DVDrip XviD 2-pass 704x288, good stereo sound AC3.\nBurn tested, runs well in both my standalone DivX players.\n\nMediaInfo analysis:\n\nFormat/Info                      : Audio Video Interleave\nFile size                        : 695 MiB\nDuration                         : 1h 55mn\nOveral bit rate                  : 842 Kbps\n\nVideo\nFormat                           : MPEG-4 Visual\nFormat profile                   : Streaming Video@L1\nFormat settings, BVOP            : Yes\nFormat settings, QPel            : No\nFormat settings, GMC             : No warppoints\nFormat settings, Matrix          : Default\nMuxing mode                      : Packet Bitstream\nCodec ID                         : XVID\nCodec ID/Hint                    : XviD\nDuration                         : 1h 55mn\nBit rate                         : 704 Kbps\nWidth                            : 704 pixels\nHeight                           : 288 pixels\nDisplay aspect ratio             : 2.444\nFrame rate                       : 23.976 fps\nResolution                       : 8 bits\nColorimetry                      : 4:2:0\nScan type                        : Progressive\nBits/(Pixel*Frame)               : 0.145\nStream size                      : 582 MiB\nWriting library                  : XviD 1.2.0.dev47 (UTC 2006-11-01)\n\nAudio\nFormat                           : MPEG Audio\nFormat version                   : Version 1\nFormat profile                   : Layer 3\nCodec ID                         : 55\nCodec ID/Hint                    : MP3\nDuration                         : 1h 55mn\nBit rate mode                    : Constant\nBit rate                         : 128 Kbps\nMinimum bit rate                 : 128 Kbps\nChannel(s)                       : 2 channels\nSampling rate                    : 48.0 KHz\nResolution                       : 16 bits\nStream size                      : 106 MiB\nWriting library                  : LAME3.97 \nEncoding settings                : CBR\n\nSource: NTSC IVTC (note that PAL/NTSC will give no problems for avi files)","torrent":{"xt":"urn:btih:92bb91f5fc0d4691eb2cbf8601e506b1a4a4d8fe","amp;dn":"At+Close+Range+%281986%29+Sean+Penn+%2B+Christopher+Walken+%28opt.subs%29","amp;tr":["udp%3A%2F%2Ftracker.openbittorrent.com%3A80","udp%3A%2F%2Fopen.demonii.com%3A1337","udp%3A%2F%2Ftracker.coppersurfer.tk%3A6969","udp%3A%2F%2Fexodus.desync.com%3A6969"],"infoHash":"92bb91f5fc0d4691eb2cbf8601e506b1a4a4d8fe","infoHashBuffer":{"type":"Buffer","data":[146,187,145,245,252,13,70,145,235,44,191,134,1,229,6,177,164,164,216,254]},"announce":[],"urlList":[]}}